<svg xmlns="http://www.w3.org/2000/svg" viewBox="0 0 762 762" fill="none" shape-rendering="auto"><metadata xmlns:rdf="http://www.w3.org/1999/02/22-rdf-syntax-ns#" xmlns:xsi="http://www.w3.org/2001/XMLSchema-instance" xmlns:dc="http://purl.org/dc/elements/1.1/" xmlns:dcterms="http://purl.org/dc/terms/"><rdf:RDF><rdf:Description><dc:title>Adventurer</dc:title><dc:creator>Lisa Wischofsky</dc:creator><dc:source xsi:type="dcterms:URI">https://www.figma.com/community/file/1184595184137881796</dc:source><dcterms:license xsi:type="dcterms:URI">https://creativecommons.org/licenses/by/4.0/</dcterms:license><dc:rights>Remix of „Adventurer” (https://www.figma.com/community/file/1184595184137881796) by „Lisa Wischofsky”, licensed under „CC BY 4.0” (https://creativecommons.org/licenses/by/4.0/)</dc:rights></rdf:Description></rdf:RDF></metadata><mask id="viewboxMask"><rect width="762" height="762" rx="0" ry="0" x="0" y="0" fill="#fff" /></mask><g mask="url(#viewboxMask)"><path d="M396 164.8a224.8 224.8 0 0 1 104.8 42.4c6.2 4.9 12.5 9.4 18 15a225.4 225.4 0 0 1 71.8 149 58.5 58.5 0 0 1 50.9 42.2 71 71 0 0 1-27.6 76.5c-11 7.7-24.5 12-38 11.7-5 0-10-1.6-15-1.8-1.9 2.2-3.3 4.9-4.8 7.3A223.3 223.3 0 0 1 389 609.8c-11 .7-21.9 2-33 .7a223.7 223.7 0 0 1-178.8-342.3A223.4 223.4 0 0 1 352 163.5c14.6-1.4 29.4-.3 44 1.3Z" fill="#000"/><path fill-rule="evenodd" clip-rule="evenodd" d="M498.8 213.2A216 216 0 0 0 363 169c-13-.2-26.2 1.6-39 4a218 218 0 0 0-113.6 365.5 218.5 218.5 0 0 0 260.4 40.2c35-18.8 64.2-47.3 84.4-81.5l-3-1.6c-2.8-1.4-5.7-3-8-5-2.2-2-.3-5.8 2.7-4.7 1.5.7 3 1.6 4.4 2.4a55 55 0 0 0 59.6-3.6 64.5 64.5 0 0 0 25-69.8 53.1 53.1 0 0 0-24-31 52.6 52.6 0 0 0-47-2.8c-1.6.8-3.4 1.5-5 1.3-2.5-.2-2.8-4.2-.6-5.2 8-4 16.5-5.6 25.4-6.4a217 217 0 0 0-72-146.4c-4.4-4-8.7-8.1-13.9-11.3Zm107.6 196.2c2-1.2 1.3-5.1-1.4-5-2 0-4.2.8-6.2 1.6l-1.4.4a95.1 95.1 0 0 0-25.5 12.4c-2.2 2-2.2 4.4.1 6.2a92 92 0 0 0 5.2 2.8 36 36 0 0 1 13 9.2c-.2 1.9-2 3.4-3.4 4.5l-.2.2c-3.9 3-8.8 5-13.6 7-2.5 1-4.9 2-7.1 3.1-1.7.8-2.6 2.2-1.6 3.9 1 2 3.2 1.1 5 .5l.6-.2 5.4-2.3c5.4-2.3 11-4.5 15.4-8 2.7-2.1 5.1-5.1 5.4-8.7-.5-3.4-2.7-5.7-5.3-7.8a83 83 0 0 0-11.6-7.2l-1.1-.6c5.4-3 10.8-5.6 16.6-7.7l5-1.7a52 52 0 0 0 6.7-2.6Z" fill="#ecad80"/><g transform="translate(-161 -83)"><path d="M550.3 424.4a65.7 65.7 0 0 1 68.2 43.3A65 65 0 0 1 598 540a65.4 65.4 0 1 1-47.7-115.6Z" fill="#000"/><path d="M549.3 430.3a59.6 59.6 0 1 1 15.1 118.3 59.6 59.6 0 0 1-15.1-118.3Z" fill="#fff"/><path d="M381.2 447A55.3 55.3 0 0 1 441 492a55 55 0 1 1-59.8-44.8Z" fill="#000"/><path d="M378.2 453.3a49.1 49.1 0 0 1 57.2 57.4 49.4 49.4 0 1 1-57.1-57.4Z" fill="#fff"/><path d="M527.2 466.2a23.8 23.8 0 1 1 5.7 47.1 23.8 23.8 0 0 1-5.6-47.1ZM358.5 480.9a21.8 21.8 0 0 1 28 16.5A21.7 21.7 0 0 1 369 523a21.9 21.9 0 0 1-24.6-14.2 22.3 22.3 0 0 1 14.1-28Z" fill="#000"/></g><g transform="translate(-161 -83)"><path d="M545 378.5c24.7 1 48 9 69.5 21 2.2 1.3 4.9 2.5 6.8 4.3 1.3 2.4-.4 5.1-3.2 4.2a234.2 234.2 0 0 0-51-12c-20.4-2.4-40-3.7-60.3-.1-3.2.4-6.9 2.1-10 1.6-2.7-1.7-1.3-6.1 1.2-7.4a78.6 78.6 0 0 1 47-11.6ZM408 397c3.5.6 6.6 1.8 9.6 3.7a54 54 0 0 0-.3 3.6c-2.7.8-5.5 1.1-8.2 1.4a152 152 0 0 0-38.9 9.7 140.6 140.6 0 0 0-35.1 18.7c-2.9 2-4.2 4.8-8.1 4.4l-1.5-2.6c.9-1.6 1.6-3.2 2.7-4.7a90 90 0 0 1 38.6-29.3c12.7-5.2 27.6-8 41.2-5Z" fill="#000"/></g><g transform="translate(-161 -83)"><path d="M580 568.7c2.4 1 2 3.4 1.4 5.4a92 92 0 0 1-28.4 34 96.5 96.5 0 0 1-60 17.5c-26.8-1-53-12-73.4-29.3-.4-2.4-.5-3.7 1.4-5.4 51.8-7.1 106.8-15 159-22.2Z" fill="#000"/><path d="M573.9 575.5c-8.2 15-21 27.5-36.4 35a89.2 89.2 0 0 1-40.5 9.2c-24.7.2-49-9-68.6-23.9 48-6.6 97.8-13.8 145.5-20.3Z" fill="#8F2E45"/></g><g transform="translate(-161 -83)"></g><g transform="translate(-161 -83)"></g><g transform="translate(-161 -83)"><g fill="#000"><path d="M546 236.8a220 220 0 0 1 141.8 52.3 189.7 189.7 0 0 1 60.4 97.9c5.5 21.9 6.6 44.4 4.3 66.8-.4 1.8-.5 5.6-3 5.6-4.2.2-8.5 0-12.7 1.2a64.9 64.9 0 0 0-31.2 17c-1 1-2 2.2-3.6 1.8-1.6 0-2.3-2-2.1-3.4.3-3 1.5-6 2.1-9 1.6-6.7 1.9-13.2 2.5-20 .6-6.8-.3-13.3-.9-20-.4-3.8-1.2-7.3-2-11a54.2 54.2 0 0 1-26.5-7c-15.8-9-27.3-25-35.5-40.8-9.8-19-16-40-20.2-60.8a441.8 441.8 0 0 1-91.2 25.9 561.7 561.7 0 0 1-101.2 9 386 386 0 0 1-71.2-6c-2-.4-3.5-1.1-3.6-3.3 1-3.8 4-7.3 6.5-10.3 9-11 19-21 29.9-30.1A242 242 0 0 1 546 236.8Z"/><path d="M718.6 474.6c0 1 .3 2.7-.5 3.5-2.2 2.4-5.1 4.2-7.6 6.4-2.6 2.2-4.8 4.9-7.5 6.9-2.7.5-4-2-2.7-4.1 2.7-3.8 6.7-6.8 10.2-9.8 2.7-2 4.5-4.7 8-3Z"/></g><path d="M520.2 243.8c41.3-4.2 83.5 2.8 120.8 21.2a194.1 194.1 0 0 1 79.2 70.7 181 181 0 0 1 26.4 118 68 68 0 0 0-38.6 14c2.8-16.5 3.5-33.4 0-49.8-.7-2.4-1.2-5.3-2.8-7.1-1.6-1.2-4.3-.8-6.2-1-8 .2-16-2.8-22.9-7a87.5 87.5 0 0 1-27.6-30.3 211 211 0 0 1-22.2-60.5c-.8-3.3-1.1-6.8-2.3-10-.9-1.4-2.4-1.8-4-1.2-3.6 1.3-7.1 3-10.7 4.3a443.8 443.8 0 0 1-82.3 22.5 588.4 588.4 0 0 1-81 8.7c-14.6.2-29.4.4-44-.4-14.3-1-28.4-2.4-42.5-4.8a232.8 232.8 0 0 1 160.7-87.3Z" fill="#0a0a0a"/></g><g transform="translate(-161 -83)"><path d="M737.2 554.1c3.4-.8 7-.4 9.4 2.3a9.2 9.2 0 0 1-.7 13.5c-4.3 3.5-11.5 2.3-14-2.9-2.8-4.7.1-11.3 5.3-12.9Z" fill="#000"/></g></g></svg>