<svg xmlns="http://www.w3.org/2000/svg" viewBox="0 0 200 200">
  <defs>
    <radialGradient id="bubble" cx="40%" cy="35%" r="60%">
      <stop offset="0%" stop-color="#e3f2fd"/>
      <stop offset="25%" stop-color="#64b5f6"/>
      <stop offset="50%" stop-color="#1e88e5"/>
      <stop offset="75%" stop-color="#0d47a1"/>
      <stop offset="100%" stop-color="#051b3e"/>
    </radialGradient>
    <radialGradient id="glow" cx="50%" cy="50%" r="50%">
      <stop offset="0%" stop-color="#42a5f5" stop-opacity="0.4"/>
      <stop offset="100%" stop-color="#0d47a1" stop-opacity="0"/>
    </radialGradient>
    <radialGradient id="shine" cx="30%" cy="25%" r="30%">
      <stop offset="0%" stop-color="#ffffff" stop-opacity="0.9"/>
      <stop offset="100%" stop-color="#ffffff" stop-opacity="0"/>
    </radialGradient>
    <filter id="stars">
      <feTurbulence baseFrequency="0.4" numOctaves="3" seed="5"/>
      <feColorMatrix type="saturate" values="0"/>
      <feComponentTransfer>
        <feFuncR type="discrete" tableValues="0 0 0 0 0 0 0 0 0 1"/>
        <feFuncG type="discrete" tableValues="0 0 0 0 0 0 0 0 0 1"/>
        <feFuncB type="discrete" tableValues="0 0 0 0 0 0 0 0 0 1"/>
      </feComponentTransfer>
    </filter>
  </defs>
  <!-- Outer glow -->
  <circle cx="100" cy="100" r="95" fill="url(#glow)"/>
  <!-- Main bubble body -->
  <circle cx="100" cy="100" r="75" fill="url(#bubble)"/>
  <!-- Galaxy sparkles inside -->
  <circle cx="100" cy="100" r="70" fill="url(#bubble)" opacity="0.5" filter="url(#stars)"/>
  <!-- Shine/reflection -->
  <ellipse cx="75" cy="70" rx="25" ry="20" fill="url(#shine)"/>
  <!-- Face - Eyes -->
  <ellipse cx="78" cy="95" rx="12" ry="14" fill="#e3f2fd" opacity="0.9"/>
  <ellipse cx="122" cy="95" rx="12" ry="14" fill="#e3f2fd" opacity="0.9"/>
  <circle cx="78" cy="95" r="7" fill="#0d47a1"/>
  <circle cx="122" cy="95" r="7" fill="#0d47a1"/>
  <circle cx="75" cy="92" r="3" fill="#ffffff"/>
  <circle cx="119" cy="92" r="3" fill="#ffffff"/>
  <!-- Smile -->
  <path d="M85 118 Q100 132 115 118" stroke="#e3f2fd" stroke-width="3" fill="none" stroke-linecap="round"/>
  <!-- Antenna/top detail -->
  <circle cx="100" cy="28" r="6" fill="#64b5f6" opacity="0.8"/>
  <line x1="100" y1="34" x2="100" y2="50" stroke="#42a5f5" stroke-width="2" opacity="0.6"/>
  <!-- Small floating particles -->
  <circle cx="55" cy="55" r="2" fill="#e3f2fd" opacity="0.7"/>
  <circle cx="140" cy="65" r="1.5" fill="#bbdefb" opacity="0.6"/>
  <circle cx="130" cy="130" r="2" fill="#e3f2fd" opacity="0.5"/>
  <circle cx="65" cy="135" r="1.5" fill="#bbdefb" opacity="0.7"/>
  <circle cx="100" cy="145" r="1" fill="#e3f2fd" opacity="0.6"/>
</svg>